<svg xmlns="http://www.w3.org/2000/svg" width="177.54" height="64" viewBox="0 0 177.54 64">
  <g id="home-budget-horizontal" transform="translate(-811 -508)">
    <g id="icon" transform="translate(811 507.83)">
      <circle id="Ellipse_2" data-name="Ellipse 2" cx="19.263" cy="19.263" r="19.263" transform="translate(25.475 0.17)" fill="#ff9800"/>
      <circle id="Ellipse_3" data-name="Ellipse 3" cx="15.498" cy="15.498" r="15.498" transform="translate(29.239 3.935)" fill="#fff3e0"/>
      <path id="Path_17" data-name="Path 17" d="M312.076,72.851a5.447,5.447,0,0,1-5.56,5.454v1.2a1.882,1.882,0,0,1-3.765,0v-1.2a6.318,6.318,0,0,1-3.876-1.153,1.882,1.882,0,0,1,2.146-3.093,2.579,2.579,0,0,0,1.419.482h4.183a1.69,1.69,0,0,0,0-3.379h-3.978a5.454,5.454,0,1,1,.107-10.908v-1.2a1.882,1.882,0,0,1,3.765,0v1.2a6.342,6.342,0,0,1,4.534,2.018,1.883,1.883,0,1,1-2.747,2.575,2.558,2.558,0,0,0-1.823-.828h-3.835a1.69,1.69,0,0,0,0,3.379h3.978A5.461,5.461,0,0,1,312.076,72.851Z" transform="translate(-259.896 -49.847)" fill="#ff9800"/>
      <path id="Path_20" data-name="Path 20" d="M31.892,276.758v17.005a1.883,1.883,0,0,1-1.882,1.882H20.976l-5.03-2.906-5.03,2.906H1.882A1.883,1.883,0,0,1,0,293.763V276.758a1.883,1.883,0,0,1,.794-1.536l14.064-9.965a1.882,1.882,0,0,1,2.176,0L31.1,275.222A1.883,1.883,0,0,1,31.892,276.758Z" transform="translate(0 -231.475)" fill="#2196f3"/>
      <path id="Path_22" data-name="Path 22" d="M97.049,406.385v11.884H86.99V406.385a1.255,1.255,0,0,1,1.255-1.255h7.549A1.255,1.255,0,0,1,97.049,406.385Z" transform="translate(-76.074 -354.099)" fill="#e3f2fd"/>
      <path id="Path_24" data-name="Path 24" d="M349.748,343.184l-4.459-4.459-.008-.008a1.883,1.883,0,0,0-2.654.008l-4.459,4.459a1.882,1.882,0,0,0,2.662,2.662l1.246-1.246v1.192a6.743,6.743,0,0,1-6.739,7.041,1.882,1.882,0,1,0,0,3.765,10.505,10.505,0,0,0,10.5-10.806V344.6l1.246,1.246a1.882,1.882,0,0,0,2.662-2.662Z" transform="translate(-291.61 -295.545)" fill="#424242"/>
      <path id="Path_25" data-name="Path 25" d="M57.276,48.583a10.505,10.505,0,0,0-10.5,10.806v1.192l-1.246-1.246A1.882,1.882,0,1,0,42.865,62l4.459,4.459.008.008a1.883,1.883,0,0,0,2.654-.008L54.445,62a1.882,1.882,0,0,0-2.662-2.662l-1.246,1.246V59.389a6.743,6.743,0,0,1,6.739-7.041,1.882,1.882,0,0,0,0-3.765Z" transform="translate(-37.004 -42.338)" fill="#424242"/>
      <path id="Path_26" data-name="Path 26" d="M115.835,323.552v.188a1.882,1.882,0,1,1-3.765,0v-.188a1.882,1.882,0,1,1,3.765,0Z" transform="translate(-98.006 -281.126)" fill="#e3f2fd"/>
    </g>
    <path id="budget" d="M9.116-17.419a7.393,7.393,0,0,1,2.608.452A5.752,5.752,0,0,1,13.836-15.6a6.4,6.4,0,0,1,1.413,2.273,9.048,9.048,0,0,1,.51,3.191,8.94,8.94,0,0,1-.524,3.205,6.284,6.284,0,0,1-1.486,2.3,6.151,6.151,0,0,1-2.316,1.4,9.226,9.226,0,0,1-3.016.466A9.53,9.53,0,0,1,5.473-3.17,8.221,8.221,0,0,1,3.4-4.132a2.922,2.922,0,0,1-.9-.889A2.179,2.179,0,0,1,2.21-6.172V-22.139a3.791,3.791,0,0,1,.685-.16A6.344,6.344,0,0,1,3.9-22.372a2.485,2.485,0,0,1,1.515.379,1.591,1.591,0,0,1,.5,1.34v3.992A7.033,7.033,0,0,1,7.324-17.2,6.81,6.81,0,0,1,9.116-17.419ZM8.475-14.5a3.85,3.85,0,0,0-1.442.262,6.692,6.692,0,0,0-1.151.583v7.284a5.161,5.161,0,0,0,1.02.452,4.6,4.6,0,0,0,1.486.219A3.369,3.369,0,0,0,11.01-6.8,4.839,4.839,0,0,0,12-10.134a4.763,4.763,0,0,0-.976-3.322A3.321,3.321,0,0,0,8.475-14.5Zm23.106,8.6a2.429,2.429,0,0,1-.233,1.122,2.053,2.053,0,0,1-.845.8,8.041,8.041,0,0,1-2.142.874,11.387,11.387,0,0,1-2.957.35A10.371,10.371,0,0,1,22.665-3.1a5.738,5.738,0,0,1-2.1-1.034,4.543,4.543,0,0,1-1.34-1.777,6.431,6.431,0,0,1-.466-2.564v-8.479a3.79,3.79,0,0,1,.685-.16,6.347,6.347,0,0,1,1.005-.073,2.561,2.561,0,0,1,1.515.364,1.586,1.586,0,0,1,.5,1.355v6.935a2.707,2.707,0,0,0,.772,2.171,3.3,3.3,0,0,0,2.2.656,5.765,5.765,0,0,0,1.53-.175,3.65,3.65,0,0,0,.947-.379V-16.952a3.79,3.79,0,0,1,.685-.16,6.144,6.144,0,0,1,.976-.073,2.551,2.551,0,0,1,1.53.364,1.611,1.611,0,0,1,.481,1.355Zm16.463.029A1.816,1.816,0,0,1,47.752-4.8a3.2,3.2,0,0,1-.874.787,8.6,8.6,0,0,1-1.923.86,8.855,8.855,0,0,1-2.768.393,8.15,8.15,0,0,1-5.551-1.792q-2.054-1.792-2.054-5.492a8.9,8.9,0,0,1,.554-3.307,6.381,6.381,0,0,1,1.5-2.287,5.983,5.983,0,0,1,2.229-1.34,8.525,8.525,0,0,1,2.768-.437,6.638,6.638,0,0,1,1.486.16,7.621,7.621,0,0,1,1.253.393v-5.274a3.791,3.791,0,0,1,.685-.16,6.141,6.141,0,0,1,.976-.073,2.476,2.476,0,0,1,1.53.379,1.617,1.617,0,0,1,.481,1.34Zm-3.671-8.013a4.477,4.477,0,0,0-1.02-.437A4.341,4.341,0,0,0,42.1-14.5a3.729,3.729,0,0,0-2.71,1.049,4.646,4.646,0,0,0-1.078,3.438A4.483,4.483,0,0,0,39.346-6.74a3.8,3.8,0,0,0,2.812,1.034,4.23,4.23,0,0,0,1.3-.175,4.261,4.261,0,0,0,.918-.408Zm16.288,9.5a7.071,7.071,0,0,1-1.355.5,7.054,7.054,0,0,1-1.792.2,8.258,8.258,0,0,1-2.477-.364A5.239,5.239,0,0,1,53-5.239a5.675,5.675,0,0,1-1.384-2.112,8.66,8.66,0,0,1-.51-3.161,8.12,8.12,0,0,1,.51-2.987A5.783,5.783,0,0,1,53.07-15.67a6.147,6.147,0,0,1,2.258-1.311,9.177,9.177,0,0,1,2.914-.437,9.687,9.687,0,0,1,2.783.379,7.837,7.837,0,0,1,2.025.874,3.082,3.082,0,0,1,.83.787,1.886,1.886,0,0,1,.306,1.107V-3.025a5.674,5.674,0,0,1-.539,2.564A4.827,4.827,0,0,1,62.175,1.3,6.276,6.276,0,0,1,59.99,2.307a10.911,10.911,0,0,1-2.71.321,11.1,11.1,0,0,1-2.637-.277,5.9,5.9,0,0,1-1.675-.626A1.86,1.86,0,0,1,52.006.093a1.906,1.906,0,0,1,.233-.962,1.709,1.709,0,0,1,.554-.612,8.521,8.521,0,0,0,1.836.816,7.417,7.417,0,0,0,2.3.35,4.84,4.84,0,0,0,2.739-.67,2.415,2.415,0,0,0,.991-2.156ZM58.125-6.55a3.973,3.973,0,0,0,1.442-.233A4.518,4.518,0,0,0,60.6-7.337v-6.585a5.046,5.046,0,0,0-.947-.408,4.23,4.23,0,0,0-1.3-.175,3.486,3.486,0,0,0-2.579.976,4.11,4.11,0,0,0-.976,3.016,6.064,6.064,0,0,0,.248,1.865,3.119,3.119,0,0,0,.7,1.224,2.609,2.609,0,0,0,1.064.67A4.121,4.121,0,0,0,58.125-6.55Zm12.7-1.894a3.457,3.457,0,0,0,1.515,2.156,5.2,5.2,0,0,0,2.739.67,6.756,6.756,0,0,0,2.258-.364,8.283,8.283,0,0,0,1.675-.772,1.922,1.922,0,0,1,.67.641,1.588,1.588,0,0,1,.262.874A1.53,1.53,0,0,1,79.556-4.2a3.205,3.205,0,0,1-1.078.772,6.754,6.754,0,0,1-1.617.5,10.911,10.911,0,0,1-2.01.175,9.957,9.957,0,0,1-3.132-.466A6.394,6.394,0,0,1,69.3-4.642a6.564,6.564,0,0,1-1.573-2.346,8.631,8.631,0,0,1-.568-3.263,8.207,8.207,0,0,1,.554-3.147,6.458,6.458,0,0,1,1.5-2.244,6.024,6.024,0,0,1,2.2-1.34,7.993,7.993,0,0,1,2.652-.437,7.359,7.359,0,0,1,2.622.452,6.014,6.014,0,0,1,2.04,1.253,5.721,5.721,0,0,1,1.326,1.923,6.111,6.111,0,0,1,.481,2.433,1.627,1.627,0,0,1-.422,1.224,2.112,2.112,0,0,1-1.18.524Zm3.234-6.206a3.27,3.27,0,0,0-2.389.947,4.009,4.009,0,0,0-1.078,2.7l6.469-.962a3.245,3.245,0,0,0-.845-1.879A2.768,2.768,0,0,0,74.063-14.651ZM87.088-7.483a1.537,1.537,0,0,0,.568,1.34,2.686,2.686,0,0,0,1.588.408,4.5,4.5,0,0,0,1.005-.117,5.368,5.368,0,0,0,.918-.291,2.038,2.038,0,0,1,.393.568,1.77,1.77,0,0,1,.16.772,1.715,1.715,0,0,1-.787,1.442,4.4,4.4,0,0,1-2.535.568,5.754,5.754,0,0,1-3.628-1.034A4.082,4.082,0,0,1,83.445-7.25V-20.624q.233-.058.685-.146a5.141,5.141,0,0,1,.976-.087,2.417,2.417,0,0,1,1.5.379,1.617,1.617,0,0,1,.481,1.34v2.418h4.283a2.621,2.621,0,0,1,.262.612,2.761,2.761,0,0,1,.117.816,1.514,1.514,0,0,1-.35,1.107,1.26,1.26,0,0,1-.932.35h-3.38Z" transform="translate(896.79 567.872)" fill="#424242"/>
    <path id="home" d="M5.946-3.043q-.265.059-.706.147a5.128,5.128,0,0,1-1,.088A2.51,2.51,0,0,1,2.71-3.19a1.607,1.607,0,0,1-.5-1.353V-22.137A3.824,3.824,0,0,1,2.9-22.3a6.4,6.4,0,0,1,1.015-.074,2.51,2.51,0,0,1,1.53.382,1.607,1.607,0,0,1,.5,1.353v4.06a8.4,8.4,0,0,1,1.486-.559A6.906,6.906,0,0,1,9.3-17.371a6.27,6.27,0,0,1,4.266,1.383,5.243,5.243,0,0,1,1.589,4.178v8.767q-.235.059-.691.147a5.189,5.189,0,0,1-.986.088,2.569,2.569,0,0,1-1.559-.382,1.607,1.607,0,0,1-.5-1.353v-7.09a2.68,2.68,0,0,0-.765-2.133,2.948,2.948,0,0,0-2-.662,4.212,4.212,0,0,0-1.471.25,6.572,6.572,0,0,0-1.236.6ZM32.631-9.986a8.677,8.677,0,0,1-.515,3.074A6.7,6.7,0,0,1,30.66-4.573a6.281,6.281,0,0,1-2.265,1.486,8.142,8.142,0,0,1-2.971.515,8.142,8.142,0,0,1-2.971-.515,6.378,6.378,0,0,1-2.265-1.471A6.552,6.552,0,0,1,18.73-6.882a8.767,8.767,0,0,1-.515-3.1,8.677,8.677,0,0,1,.515-3.074A6.449,6.449,0,0,1,20.2-15.385a6.526,6.526,0,0,1,2.28-1.471,8.056,8.056,0,0,1,2.942-.515,8.056,8.056,0,0,1,2.942.515,6.426,6.426,0,0,1,2.28,1.486,6.6,6.6,0,0,1,1.471,2.339A8.588,8.588,0,0,1,32.631-9.986Zm-7.208-4.442a3.006,3.006,0,0,0-2.5,1.162,5.2,5.2,0,0,0-.912,3.28,5.252,5.252,0,0,0,.9,3.3,3.011,3.011,0,0,0,2.515,1.147,3,3,0,0,0,2.515-1.162,5.264,5.264,0,0,0,.9-3.28,5.2,5.2,0,0,0-.912-3.28A3.006,3.006,0,0,0,25.423-14.428ZM56.4-3.043q-.235.059-.691.147a5.189,5.189,0,0,1-.986.088,2.5,2.5,0,0,1-1.545-.382A1.632,1.632,0,0,1,52.7-4.543v-7.649a2.08,2.08,0,0,0-.647-1.706,2.61,2.61,0,0,0-1.706-.53,3.651,3.651,0,0,0-1.368.265,3.964,3.964,0,0,0-1.162.706,3.922,3.922,0,0,1,.088.824v9.591q-.235.059-.691.147a5.189,5.189,0,0,1-.986.088,2.5,2.5,0,0,1-1.545-.382,1.632,1.632,0,0,1-.485-1.353v-7.649a2.034,2.034,0,0,0-.677-1.706,2.733,2.733,0,0,0-1.736-.53,3.772,3.772,0,0,0-1.353.235,7.445,7.445,0,0,0-1.03.471v10.68q-.265.059-.706.147a5.128,5.128,0,0,1-1,.088,2.51,2.51,0,0,1-1.53-.382,1.607,1.607,0,0,1-.5-1.353v-9.444a2.048,2.048,0,0,1,.294-1.133,3.119,3.119,0,0,1,.912-.868,8.186,8.186,0,0,1,2.236-.986,9.874,9.874,0,0,1,2.795-.4,6.443,6.443,0,0,1,4.354,1.442,8.213,8.213,0,0,1,1.956-1.03,7.44,7.44,0,0,1,2.6-.412,8.278,8.278,0,0,1,2.177.279,4.693,4.693,0,0,1,1.78.9,4.38,4.38,0,0,1,1.192,1.574,5.4,5.4,0,0,1,.441,2.28Zm6.767-5.266A3.491,3.491,0,0,0,64.7-6.132a5.254,5.254,0,0,0,2.766.677,6.821,6.821,0,0,0,2.28-.368,8.363,8.363,0,0,0,1.692-.78,1.941,1.941,0,0,1,.677.647,1.6,1.6,0,0,1,.265.883,1.545,1.545,0,0,1-.4,1.044,3.237,3.237,0,0,1-1.089.78,6.822,6.822,0,0,1-1.633.5,11.02,11.02,0,0,1-2.03.177,10.053,10.053,0,0,1-3.163-.471A6.455,6.455,0,0,1,61.625-4.47a6.627,6.627,0,0,1-1.589-2.368,8.715,8.715,0,0,1-.574-3.3,8.286,8.286,0,0,1,.559-3.177,6.521,6.521,0,0,1,1.515-2.265,6.082,6.082,0,0,1,2.221-1.353,8.07,8.07,0,0,1,2.677-.441,7.431,7.431,0,0,1,2.648.456,6.072,6.072,0,0,1,2.059,1.265,5.777,5.777,0,0,1,1.339,1.942,6.17,6.17,0,0,1,.485,2.457,1.643,1.643,0,0,1-.427,1.236,2.133,2.133,0,0,1-1.192.53Zm3.266-6.267a3.3,3.3,0,0,0-2.412.956A4.048,4.048,0,0,0,62.934-10.9l6.531-.971a3.277,3.277,0,0,0-.853-1.9A2.8,2.8,0,0,0,66.435-14.576Z" transform="translate(896.79 536.072)" fill="#424242"/>
  </g>
</svg>
